<?xml version="1.0" standalone="no"?>
<!DOCTYPE svg PUBLIC "-//W3C//DTD SVG 20010904//EN"
 "http://www.w3.org/TR/2001/REC-SVG-20010904/DTD/svg10.dtd">
<svg version="1.0" xmlns="http://www.w3.org/2000/svg"
 width="75.000000pt" height="81.000000pt" viewBox="0 0 75.000000 81.000000"
 preserveAspectRatio="xMidYMid meet">

<g transform="translate(0.000000,81.000000) scale(0.100000,-0.100000)"
fill="#000000" stroke="none">
<path d="M354 715 c19 -15 19 -15 -5 -15 -13 0 -51 -9 -84 -19 -43 -14 -55
-21 -43 -26 17 -7 17 -9 -1 -34 -21 -30 -42 -98 -21 -71 8 12 9 6 4 -24 -4
-26 -3 -37 3 -33 6 4 13 -5 16 -18 2 -14 0 -28 -4 -31 -18 -11 -9 -75 14 -98
37 -39 70 -108 55 -117 -54 -30 -86 -54 -103 -77 -13 -19 -5 -14 29 15 27 24
52 43 55 43 4 0 13 -16 20 -35 21 -58 83 -80 141 -50 33 17 50 43 50 75 0 19
2 20 28 6 15 -8 40 -26 56 -41 15 -14 30 -24 32 -22 8 8 -68 69 -103 83 -18 8
-33 16 -33 19 0 10 46 80 67 101 22 22 31 72 16 88 -5 4 -8 29 -8 56 0 37 3
46 13 38 19 -16 15 -2 -18 55 -36 64 -37 71 -9 56 17 -9 20 -8 17 2 -3 8 -20
16 -39 20 -52 8 -64 18 -42 35 17 13 17 13 -4 14 -12 0 -25 -5 -28 -10 -4 -6
-16 -3 -32 10 -14 11 -33 20 -42 20 -13 -1 -13 -3 3 -15z m66 -187 c0 -10 5
-18 10 -18 6 0 10 12 10 27 0 51 57 -86 63 -149 2 -23 4 -23 18 3 8 17 8 20
-1 14 -8 -5 -11 -3 -8 5 8 26 28 22 28 -5 0 -34 -17 -65 -35 -65 -8 0 -15 -5
-15 -11 0 -5 -4 -7 -10 -4 -5 3 -7 0 -4 -9 7 -19 -14 -59 -27 -51 -5 4 -8 1
-7 -7 2 -7 -3 -12 -10 -10 -8 1 -11 -2 -8 -7 15 -24 -69 -28 -102 -5 -26 18
-55 71 -47 84 3 6 2 10 -3 10 -13 0 -22 75 -15 131 4 30 10 46 17 43 7 -3 20
10 29 28 17 31 17 32 12 6 -3 -16 -1 -28 4 -28 5 0 19 12 30 28 l20 27 1 -24
c0 -20 2 -21 15 -11 8 7 15 20 15 29 0 14 2 14 10 1 5 -8 10 -23 10 -32z
m-175 -176 c-9 -10 -25 20 -25 49 0 44 15 43 23 -1 5 -23 6 -45 2 -48z m205
-139 c0 -15 2 -16 10 -3 8 12 10 10 10 -11 0 -68 -109 -101 -156 -46 -24 28
-32 67 -14 67 6 0 11 -8 11 -17 1 -15 2 -15 6 -2 3 13 14 15 52 11 30 -2 51 0
55 7 11 17 26 13 26 -6z"/>
<path d="M308 488 c-16 -5 -28 -14 -28 -19 0 -5 15 -3 34 5 19 8 37 12 40 8 3
-3 6 0 6 6 0 14 -15 14 -52 0z"/>
<path d="M390 492 c0 -5 6 -9 13 -9 6 0 26 -3 42 -7 l30 -6 -30 14 c-34 17
-55 20 -55 8z"/>
<path d="M298 429 c15 -6 30 -5 40 1 13 7 8 9 -23 9 -35 0 -37 -1 -17 -10z"/>
<path d="M412 430 c10 -6 25 -7 40 -1 20 9 18 10 -17 10 -31 0 -36 -2 -23 -9z"/>
<path d="M329 408 c-5 -18 -6 -38 -1 -34 7 8 12 36 6 36 -2 0 -4 -1 -5 -2z"/>
<path d="M415 391 c-3 -5 -2 -12 3 -15 5 -3 9 1 9 9 0 17 -3 19 -12 6z"/>
<path d="M353 371 c1 -14 9 -26 17 -28 10 -3 11 -2 4 4 -7 4 -14 17 -17 28 -5
16 -5 15 -4 -4z"/>
<path d="M343 303 c-7 -2 -13 -9 -13 -14 0 -5 11 -4 24 2 17 8 29 8 45 0 11
-7 21 -8 21 -2 0 17 -48 26 -77 14z"/>
</g>
</svg>
