<?xml version="1.0" standalone="no"?>
<!DOCTYPE svg PUBLIC "-//W3C//DTD SVG 20010904//EN"
 "http://www.w3.org/TR/2001/REC-SVG-20010904/DTD/svg10.dtd">
<svg version="1.0" xmlns="http://www.w3.org/2000/svg"
 width="75.000000pt" height="81.000000pt" viewBox="0 0 75.000000 81.000000"
 preserveAspectRatio="xMidYMid meet">

<g transform="translate(0.000000,81.000000) scale(0.100000,-0.100000)"
fill="#000000" stroke="none">
<path d="M242 680 c-38 -18 -62 -35 -59 -42 2 -7 -4 -29 -15 -48 -22 -42 -24
-85 -4 -77 10 4 12 -10 10 -74 -3 -74 -2 -82 20 -102 13 -12 26 -32 30 -43 4
-12 15 -29 26 -39 20 -18 19 -18 -22 -37 -44 -20 -88 -55 -88 -70 0 -5 10 1
23 12 31 30 101 65 94 48 -14 -41 62 -98 109 -82 30 11 74 56 74 76 0 24 4 23
69 -13 31 -18 50 -25 42 -16 -7 9 -37 28 -67 43 -30 14 -54 28 -54 31 0 16 37
72 60 90 27 22 28 25 28 135 1 130 -6 148 -74 201 -62 48 -112 50 -202 7z
m198 -189 c14 -9 20 -24 20 -49 0 -28 3 -33 12 -24 20 20 38 14 38 -14 0 -33
-17 -64 -35 -64 -8 0 -24 -18 -35 -40 -21 -42 -71 -80 -103 -80 -62 0 -112 74
-123 182 -6 63 -5 71 21 108 31 45 35 48 28 20 -8 -30 12 -24 42 11 26 32 26
32 19 5 -9 -37 19 -35 48 4 l22 30 12 -38 c7 -20 22 -43 34 -51z m-237 -111
c5 -41 4 -43 -9 -26 -15 21 -19 58 -7 69 9 10 10 8 16 -43z m227 -171 c0 -31
-48 -69 -86 -69 -38 0 -74 29 -74 60 0 17 5 19 43 14 30 -4 53 -1 73 9 33 17
44 14 44 -14z"/>
<path d="M272 486 c-18 -7 -30 -15 -26 -18 8 -9 64 12 64 23 0 5 -1 8 -2 8 -2
-1 -18 -7 -36 -13z"/>
<path d="M360 488 c0 -12 24 -20 50 -16 17 2 14 5 -14 14 -20 6 -36 7 -36 2z"/>
<path d="M270 425 c0 -8 5 -15 10 -15 6 0 10 7 10 15 0 8 -4 15 -10 15 -5 0
-10 -7 -10 -15z"/>
<path d="M380 425 c0 -8 5 -15 10 -15 6 0 10 7 10 15 0 8 -4 15 -10 15 -5 0
-10 -7 -10 -15z"/>
<path d="M312 368 c2 -12 10 -24 18 -26 13 -5 13 -3 2 11 -8 9 -11 21 -7 27 3
5 1 10 -5 10 -6 0 -10 -10 -8 -22z"/>
<path d="M305 300 c-4 -6 8 -10 30 -10 22 0 34 4 30 10 -3 6 -17 10 -30 10
-13 0 -27 -4 -30 -10z"/>
</g>
</svg>
