<?xml version="1.0" standalone="no"?>
<!DOCTYPE svg PUBLIC "-//W3C//DTD SVG 20010904//EN"
 "http://www.w3.org/TR/2001/REC-SVG-20010904/DTD/svg10.dtd">
<svg version="1.0" xmlns="http://www.w3.org/2000/svg"
 width="99.000000pt" height="114.000000pt" viewBox="0 0 99.000000 114.000000"
 preserveAspectRatio="xMidYMid meet">

<g transform="translate(0.000000,114.000000) scale(0.100000,-0.100000)"
fill="#000000" stroke="none">
<path d="M423 1039 c-17 -5 -40 -19 -50 -32 -10 -12 -30 -27 -45 -34 -46 -21
-62 -65 -55 -161 4 -55 2 -90 -5 -102 -18 -28 2 -81 41 -107 42 -28 71 -85 71
-139 0 -40 -2 -43 -32 -49 -45 -9 -148 -56 -148 -66 0 -13 6 -11 42 11 56 34
65 28 74 -47 8 -62 12 -69 39 -83 48 -24 199 -26 260 -3 l50 19 0 57 c-1 61 1
63 26 44 16 -12 15 -20 -1 -107 -10 -52 -16 -100 -13 -106 3 -7 17 -17 31 -23
15 -6 35 -16 45 -23 14 -10 20 -10 35 0 9 6 24 15 32 18 35 13 45 22 47 45 l3
24 -10 -22 c-18 -43 -60 -24 -60 26 0 10 -9 26 -20 36 -21 19 -27 45 -11 45 6
0 13 -4 16 -10 3 -5 12 -10 18 -10 7 1 -1 12 -18 25 -23 19 -27 27 -18 36 9 9
18 8 40 -6 26 -17 27 -17 13 -1 -8 10 -25 22 -38 27 -20 8 -22 12 -12 24 17
20 30 19 58 -7 16 -15 23 -18 20 -8 -2 8 -19 25 -36 36 -26 18 -29 24 -18 34
12 9 21 7 42 -7 21 -14 26 -14 22 -3 -6 19 -50 35 -72 27 -9 -4 -16 -17 -16
-30 0 -13 -5 -28 -11 -34 -6 -6 -12 -50 -14 -99 -3 -102 -10 -124 -36 -124
-24 0 -24 21 1 130 11 47 20 99 20 116 0 23 7 34 26 44 14 8 30 22 35 32 17
31 48 22 65 -18 8 -20 13 -42 10 -49 -2 -7 2 -31 10 -54 10 -31 12 -52 4 -84
-5 -23 -9 -49 -9 -57 1 -8 7 9 14 38 11 44 11 67 -1 135 -22 126 -59 160 -106
97 -12 -17 -27 -30 -34 -30 -18 0 -32 -29 -27 -51 6 -23 -6 -24 -44 -4 -15 9
-40 20 -55 25 -32 11 -38 49 -12 71 9 7 37 56 61 107 43 90 45 96 34 134 -13
43 -7 138 11 175 10 20 5 27 -38 67 -82 75 -177 108 -251 85z m170 -193 l69
-1 -4 -135 c-3 -127 -5 -138 -31 -182 -34 -58 -76 -82 -128 -75 -54 7 -92 38
-125 102 -18 34 -36 55 -46 55 -37 0 -64 80 -36 108 9 9 16 8 29 -3 15 -14 17
-12 23 27 3 24 19 68 34 98 l27 55 59 -24 c41 -16 82 -24 129 -25z m86 -210
c-9 -8 -10 -7 -5 7 3 10 7 33 8 50 1 28 2 28 5 -7 3 -22 -1 -43 -8 -50z m-162
-196 c46 0 53 -3 53 -20 0 -10 6 -23 14 -27 15 -8 40 -129 30 -144 -3 -5 -54
-9 -113 -9 l-107 0 -10 78 c-7 46 -7 82 -2 89 5 6 10 27 11 46 l2 34 35 -23
c26 -18 48 -24 87 -24z m273 -296 c0 -37 -3 -44 -20 -44 -22 0 -24 11 -14 73
5 30 9 35 20 26 8 -7 14 -30 14 -55z"/>
<path d="M408 819 c-26 -15 -22 -32 5 -23 12 4 32 7 45 6 25 -2 30 13 6 22
-22 8 -36 7 -56 -5z"/>
<path d="M570 820 c-19 -12 -13 -16 38 -24 44 -7 57 6 23 24 -24 12 -41 13
-61 0z"/>
<path d="M417 733 c-14 -13 -6 -19 28 -19 37 0 46 10 19 20 -20 8 -39 8 -47
-1z"/>
<path d="M577 733 c-13 -12 -7 -18 22 -19 21 -1 28 3 24 12 -5 15 -35 19 -46
7z"/>
<path d="M531 703 c-1 -6 3 -23 9 -37 8 -21 6 -27 -11 -37 -25 -13 -18 -23 10
-14 12 3 21 14 21 23 -1 21 -28 82 -29 65z"/>
<path d="M310 690 c0 -8 5 -22 10 -30 9 -13 10 -13 10 0 0 8 -5 22 -10 30 -9
13 -10 13 -10 0z"/>
<path d="M467 563 c9 -7 33 -13 53 -13 20 0 44 6 53 13 15 10 6 12 -53 12 -59
0 -68 -2 -53 -12z"/>
</g>
</svg>
