<?xml version="1.0" standalone="no"?>
<!DOCTYPE svg PUBLIC "-//W3C//DTD SVG 20010904//EN"
 "http://www.w3.org/TR/2001/REC-SVG-20010904/DTD/svg10.dtd">
<svg version="1.0" xmlns="http://www.w3.org/2000/svg"
 width="75.000000pt" height="93.000000pt" viewBox="0 0 75.000000 93.000000"
 preserveAspectRatio="xMidYMid meet">

<g transform="translate(0.000000,93.000000) scale(0.100000,-0.100000)"
fill="#000000" stroke="none">
<path d="M347 776 c-44 -16 -69 -35 -61 -47 3 -5 0 -18 -6 -29 -7 -13 -7 -20
0 -20 5 0 10 6 10 14 0 18 26 39 42 34 8 -3 4 -12 -10 -26 -12 -12 -17 -22
-12 -22 6 0 10 -4 10 -10 0 -5 -19 -11 -42 -11 -24 -1 -35 -3 -25 -6 21 -6 23
-23 1 -23 -12 0 -15 -9 -13 -40 2 -21 0 -42 -4 -46 -15 -15 -7 -73 12 -91 35
-32 71 -93 71 -119 0 -19 -8 -28 -32 -38 -71 -29 -77 -29 -84 -1 -8 32 -47 50
-76 34 -11 -6 -17 -13 -14 -16 3 -3 1 -14 -5 -25 -21 -39 22 -218 52 -218 5 0
1 12 -11 27 -12 17 -24 57 -30 102 -11 77 -6 114 6 42 7 -42 22 -51 53 -32 13
8 11 33 -6 96 -4 15 -2 17 6 9 7 -6 18 -34 26 -62 11 -44 11 -53 -1 -63 -8 -6
-14 -26 -13 -43 l1 -31 8 34 c4 18 12 36 18 40 5 3 12 16 16 29 4 12 12 22 17
22 13 0 1 -96 -17 -135 l-14 -30 20 24 c11 13 20 35 20 50 0 14 3 43 6 63 5
31 4 38 -9 38 -9 0 -21 -8 -26 -17 -9 -16 -10 -16 -11 3 0 17 12 27 55 44 45
18 55 27 55 47 0 20 3 22 19 13 31 -16 76 -12 105 11 l26 20 0 -28 c0 -16 4
-33 10 -39 18 -18 -85 -154 -163 -216 -27 -21 -44 -38 -38 -38 20 0 140 122
186 190 45 64 49 68 72 57 23 -10 24 -14 19 -81 l-5 -71 9 59 c5 32 12 61 14
64 7 7 58 -36 78 -66 10 -15 18 -21 18 -13 0 12 -50 65 -92 97 -17 13 -56 28
-78 28 -11 1 -15 13 -15 53 1 44 5 55 33 81 32 30 43 74 21 88 -7 4 -9 22 -4
50 6 42 5 44 -19 44 -29 0 -35 16 -8 23 9 3 0 5 -20 6 -20 0 -40 6 -43 11 -3
6 -1 10 6 10 7 0 5 8 -6 20 -10 11 -15 23 -11 28 4 4 19 -6 32 -21 25 -30 31
-28 14 4 -15 27 4 24 23 -3 11 -16 16 -18 16 -8 1 8 -15 30 -34 48 -40 40 -91
49 -148 28z m163 -218 c0 -35 2 -39 15 -28 12 10 16 9 21 -4 10 -25 -5 -68
-26 -73 -10 -3 -24 -18 -30 -34 -7 -16 -26 -41 -42 -54 -85 -72 -178 25 -178
185 0 66 15 87 70 94 27 4 59 15 71 25 22 18 23 18 61 -26 31 -36 38 -52 38
-85z m-252 -40 c0 -13 3 -34 8 -48 7 -23 6 -24 -9 -11 -17 13 -23 61 -10 74
10 10 11 9 11 -15z m-85 -260 c4 -28 2 -38 -10 -42 -9 -4 -17 -5 -19 -4 -7 8
-20 107 -13 103 4 -3 11 0 15 7 9 14 18 -9 27 -64z"/>
<path d="M303 593 c-26 -10 -12 -19 22 -15 19 2 32 8 29 13 -6 10 -31 11 -51
2z"/>
<path d="M416 592 c-3 -6 10 -12 29 -14 22 -2 34 0 32 6 -5 14 -53 20 -61 8z"/>
<path d="M366 509 c-7 -37 -1 -49 22 -48 16 1 16 2 0 6 -13 3 -15 12 -11 39 7
42 -2 45 -11 3z"/>
<path d="M318 518 c9 -9 15 -9 24 0 9 9 7 12 -12 12 -19 0 -21 -3 -12 -12z"/>
<path d="M428 518 c9 -9 15 -9 24 0 9 9 7 12 -12 12 -19 0 -21 -3 -12 -12z"/>
<path d="M525 499 c-4 -6 -5 -12 -2 -15 2 -3 7 2 10 11 7 17 1 20 -8 4z"/>
<path d="M352 418 c7 -4 22 -8 33 -8 11 0 26 4 33 8 8 5 -5 9 -33 9 -28 0 -41
-4 -33 -9z"/>
<path d="M142 290 c0 -14 4 -36 8 -50 6 -20 8 -21 8 -5 0 11 -4 34 -8 50 -7
27 -8 27 -8 5z"/>
<path d="M255 709 c-4 -6 -5 -12 -2 -15 2 -3 7 2 10 11 7 17 1 20 -8 4z"/>
<path d="M305 240 c11 -5 29 -9 40 -9 l20 0 -20 9 c-11 5 -29 9 -40 9 l-20 0
20 -9z"/>
<path d="M553 105 c0 -22 2 -30 4 -17 2 12 2 30 0 40 -3 9 -5 -1 -4 -23z"/>
</g>
</svg>
