<?xml version="1.0" standalone="no"?>
<!DOCTYPE svg PUBLIC "-//W3C//DTD SVG 20010904//EN"
 "http://www.w3.org/TR/2001/REC-SVG-20010904/DTD/svg10.dtd">
<svg version="1.0" xmlns="http://www.w3.org/2000/svg"
 width="90.000000pt" height="90.000000pt" viewBox="0 0 90.000000 90.000000"
 preserveAspectRatio="xMidYMid meet">

<g transform="translate(0.000000,90.000000) scale(0.100000,-0.100000)"
fill="#000000" stroke="none">
<path d="M275 749 c-82 -38 -158 -79 -167 -90 -14 -17 -18 -40 -18 -104 0
-169 36 -263 139 -365 68 -67 171 -130 213 -130 36 0 144 68 208 131 94 93
140 213 140 371 0 98 -3 101 -167 179 -82 39 -159 72 -173 75 -16 2 -77 -20
-175 -67z m325 -42 l145 -72 3 -65 c4 -92 -14 -185 -51 -253 -36 -68 -125
-153 -203 -194 l-54 -28 -63 32 c-83 43 -170 131 -209 211 -29 59 -32 75 -36
181 l-4 116 148 72 c82 39 156 71 164 72 8 0 80 -32 160 -72z"/>
<path d="M381 678 c-42 -34 -51 -47 -51 -73 0 -19 -8 -39 -20 -50 -10 -9 -27
-37 -36 -61 -23 -60 -16 -197 12 -245 61 -103 207 -107 272 -7 15 24 34 44 42
46 8 2 21 8 27 14 15 12 18 74 4 82 -4 3 -11 28 -15 56 -5 35 -16 60 -36 84
-22 25 -30 44 -30 72 0 36 -5 43 -54 82 -30 23 -56 42 -59 42 -2 0 -27 -19
-56 -42z m46 -64 c-3 -3 -12 -4 -19 -1 -8 3 -5 6 6 6 11 1 17 -2 13 -5z m3
-33 c0 -6 -4 -13 -10 -16 -5 -3 -10 1 -10 9 0 9 5 16 10 16 6 0 10 -4 10 -9z
m40 -6 c0 -8 -4 -15 -10 -15 -5 0 -10 7 -10 15 0 8 5 15 10 15 6 0 10 -7 10
-15z m17 -148 c31 -8 48 -19 54 -34 7 -19 14 -22 38 -17 24 5 30 2 36 -15 8
-25 -10 -51 -34 -51 -9 0 -25 -17 -36 -37 -25 -46 -78 -83 -119 -83 -41 0 -91
32 -116 72 -25 41 -29 168 -6 168 8 0 27 15 43 33 l28 34 33 -29 c18 -16 54
-34 79 -41z"/>
<path d="M327 403 c-14 -13 -6 -23 11 -15 9 5 23 7 31 4 8 -3 11 0 7 7 -8 12
-39 15 -49 4z"/>
<path d="M435 400 c-4 -6 5 -10 19 -10 14 0 26 5 26 10 0 6 -9 10 -19 10 -11
0 -23 -4 -26 -10z"/>
<path d="M444 357 c-8 -21 2 -35 16 -21 5 5 6 15 0 24 -8 12 -10 12 -16 -3z"/>
<path d="M340 345 c0 -8 5 -15 10 -15 6 0 10 7 10 15 0 8 -4 15 -10 15 -5 0
-10 -7 -10 -15z"/>
<path d="M368 318 c-8 -20 2 -38 20 -38 12 0 13 3 5 11 -6 6 -9 18 -6 25 3 8
1 14 -5 14 -5 0 -12 -6 -14 -12z"/>
<path d="M373 255 c5 -13 69 -13 74 0 2 7 -13 11 -37 10 -22 0 -38 -4 -37 -10z"/>
</g>
</svg>
