<svg xmlns="http://www.w3.org/2000/svg" width="270" height="270" viewBox="0 0 270 270">
<g>
<path d="M 211.85 232.68 C210.32,234.53 60.04,234.64 58.20,232.80 C57.28,231.88 57.00,209.84 57.00,139.69 L 57.00 47.77 L 59.18 43.89 C60.58,41.40 62.87,39.27 65.54,37.98 C69.62,36.00 71.24,35.96 136.29,36.23 C201.75,36.50 202.90,36.53 205.62,38.56 C209.91,41.77 212.24,45.49 212.90,50.19 C213.23,52.56 213.27,81.23 213.00,113.89 C212.54,169.05 212.38,173.36 210.75,174.39 C209.47,175.19 208.53,175.19 207.25,174.39 C205.65,173.38 205.46,170.00 205.00,133.89 L 204.50 94.50 L 134.74 94.24 L 64.99 93.99 L 65.24 159.74 L 65.50 225.50 L 133.00 225.78 C170.12,225.93 201.51,225.81 202.75,225.51 C204.92,224.98 205.00,224.55 205.00,213.68 C205.00,202.14 205.64,200.00 209.08,200.00 C212.60,200.00 213.18,202.48 213.06,217.14 C212.99,225.80 212.52,231.88 211.85,232.68 ZM 150.50 215.34 C143.73,217.05 133.00,218.02 128.50,217.33 C114.45,215.18 103.58,209.72 93.65,199.83 C88.00,194.20 86.22,193.00 83.55,193.00 C80.39,193.00 77.00,190.54 77.00,188.24 C77.00,187.64 78.10,186.28 79.44,185.22 L 81.88 183.30 L 79.94 177.06 C76.93,167.38 76.50,155.99 78.81,147.00 C79.87,142.88 81.49,137.79 82.40,135.71 L 84.06 131.92 L 81.07 130.88 C77.76,129.72 76.23,126.63 77.94,124.57 C78.55,123.84 81.71,123.04 84.97,122.81 C90.45,122.41 91.23,122.03 95.58,117.69 C114.85,98.41 149.12,96.86 170.55,114.29 C198.05,136.66 200.37,176.16 175.62,200.50 C167.75,208.24 159.61,213.05 150.50,215.34 ZM 124.25 207.94 C140.70,211.19 156.13,206.95 168.22,195.87 L 173.50 191.03 L 170.75 188.93 C165.23,184.72 168.47,178.87 175.05,181.17 C177.85,182.14 178.49,182.05 179.63,180.49 C183.76,174.85 185.39,156.14 182.56,146.84 C177.38,129.77 163.12,115.71 147.24,112.02 C139.64,110.25 139.00,110.75 139.00,118.43 C139.00,123.91 138.68,125.10 137.00,126.00 C135.60,126.75 134.41,126.76 133.05,126.02 C131.46,125.17 131.04,123.72 130.80,118.24 C130.52,112.03 130.32,111.47 128.15,111.17 C122.44,110.36 107.63,117.61 100.27,124.81 C94.13,130.82 89.47,139.17 87.05,148.50 C84.83,157.05 86.29,173.06 89.89,179.80 C90.91,181.71 91.62,181.92 95.03,181.38 C101.89,180.28 104.06,183.97 99.25,188.52 L 96.50 191.12 L 101.78 196.02 C107.48,201.31 117.44,206.60 124.25,207.94 ZM 66.75 85.22 C67.71,85.42 69.40,85.49 70.50,85.37 C71.60,85.26 102.31,85.13 138.75,85.08 L 205.00 85.00 L 205.00 67.45 C205.00,50.29 204.95,49.86 202.61,47.52 C201.30,46.21 198.71,44.86 196.86,44.52 C195.01,44.19 165.75,44.05 131.83,44.21 L 70.16 44.50 L 67.58 46.92 L 65.00 49.35 L 65.00 67.10 C65.00,83.20 65.16,84.89 66.75,85.22 ZM 145.42 76.39 C144.55,76.73 128.40,77.00 109.54,77.00 C79.98,77.00 75.07,76.79 73.98,75.47 C73.00,74.30 72.97,73.36 73.83,71.47 L 74.96 69.00 L 109.78 69.00 C135.53,69.00 144.91,69.31 145.80,70.20 C147.51,71.91 147.28,75.68 145.42,76.39 ZM 191.08 75.29 C187.60,77.35 181.47,77.44 177.88,75.50 C174.25,73.52 171.63,67.66 172.36,63.14 C173.56,55.75 179.51,51.63 187.00,53.00 C197.81,54.98 200.50,69.73 191.08,75.29 ZM 138.19 179.25 C135.55,182.08 134.31,182.51 132.38,181.23 C130.02,179.68 129.94,176.35 132.18,173.50 C135.24,169.61 134.93,165.41 131.17,159.55 C127.09,153.20 126.72,145.18 130.25,139.99 C133.30,135.51 135.52,134.21 137.75,135.61 C140.30,137.21 140.44,140.63 138.07,143.64 C135.16,147.34 135.52,150.67 139.53,156.95 C142.27,161.26 143.00,163.43 143.00,167.27 C143.00,172.66 141.99,175.17 138.19,179.25 ZM 160.80 163.80 C158.77,165.83 156.30,165.14 153.44,161.75 C146.23,153.20 146.18,143.82 153.32,137.16 C158.29,132.51 162.71,137.14 159.04,143.16 C156.27,147.71 156.43,152.17 159.50,155.82 C162.22,159.05 162.68,161.92 160.80,163.80 ZM 118.00 179.16 C114.92,182.23 113.08,182.68 111.20,180.80 C109.44,179.04 109.77,175.85 112.00,173.00 C114.68,169.57 114.50,165.06 111.50,161.00 C108.75,157.27 108.37,155.03 110.20,153.20 C112.13,151.27 114.45,151.80 117.06,154.75 C124.13,162.73 124.51,172.64 118.00,179.16 ZM 112.80 59.80 C111.17,61.43 109.45,61.31 107.57,59.43 C105.53,57.39 105.58,55.68 107.75,53.77 C111.59,50.38 116.43,56.17 112.80,59.80 ZM 116.07 143.96 C113.56,145.30 113.43,145.29 111.57,143.43 C109.49,141.35 109.59,139.68 111.92,137.58 C113.45,136.19 114.25,136.07 115.92,136.96 C118.57,138.38 118.66,142.57 116.07,143.96 ZM 129.43 59.43 C127.47,61.39 125.60,61.43 124.05,59.56 C122.14,57.25 123.16,53.55 125.81,53.17 C130.23,52.55 132.46,56.40 129.43,59.43 ZM 79.95 59.56 C78.40,61.43 76.53,61.39 74.57,59.43 C71.54,56.40 73.77,52.55 78.19,53.17 C80.84,53.55 81.86,57.25 79.95,59.56 ZM 145.95 59.56 C144.40,61.43 142.53,61.39 140.57,59.43 C137.54,56.40 139.77,52.55 144.19,53.17 C146.84,53.55 147.86,57.25 145.95,59.56 ZM 97.17 58.53 C95.14,62.99 89.47,60.78 90.17,55.81 C90.40,54.18 91.26,53.41 93.09,53.20 C96.71,52.78 98.64,55.30 97.17,58.53 ZM 159.80 176.91 C159.58,178.83 158.85,179.58 156.99,179.79 C152.06,180.37 150.05,174.84 154.47,172.83 C157.70,171.36 160.22,173.29 159.80,176.91 ZM 212.82 187.74 C212.58,189.84 211.90,190.57 209.99,190.79 C205.54,191.31 203.54,187.60 206.75,184.77 C209.48,182.35 213.23,184.19 212.82,187.74 ZM 182.75 67.92 C185.02,69.24 185.37,69.23 186.80,67.80 C188.73,65.87 188.24,62.21 185.95,61.48 C181.85,60.18 179.07,65.78 182.75,67.92 Z" fill="rgb(232,232,232)"/>
<path d="M 0.00 135.00 L 0.00 0.00 L 135.00 0.00 L 270.00 0.00 L 270.00 135.00 L 270.00 270.00 L 135.00 270.00 L 0.00 270.00 L 0.00 135.00 ZM 211.85 232.68 C212.52,231.88 212.99,225.80 213.06,217.14 C213.18,202.48 212.60,200.00 209.08,200.00 C205.64,200.00 205.00,202.14 205.00,213.68 C205.00,224.55 204.92,224.98 202.75,225.51 C201.51,225.81 170.12,225.93 133.00,225.78 L 65.50 225.50 L 65.24 159.74 L 64.99 93.99 L 134.74 94.24 L 204.50 94.50 L 205.00 133.89 C205.46,170.00 205.65,173.38 207.25,174.39 C208.53,175.19 209.47,175.19 210.75,174.39 C212.38,173.36 212.54,169.05 213.00,113.89 C213.27,81.23 213.23,52.56 212.90,50.19 C212.24,45.49 209.91,41.77 205.62,38.56 C202.90,36.53 201.75,36.50 136.29,36.23 C71.24,35.96 69.62,36.00 65.54,37.98 C62.87,39.27 60.58,41.40 59.18,43.89 L 57.00 47.77 L 57.00 139.69 C57.00,209.84 57.28,231.88 58.20,232.80 C60.04,234.64 210.32,234.53 211.85,232.68 ZM 150.50 215.34 C159.61,213.05 167.75,208.24 175.62,200.50 C200.37,176.16 198.05,136.66 170.55,114.29 C149.12,96.86 114.85,98.41 95.58,117.69 C91.23,122.03 90.45,122.41 84.97,122.81 C81.71,123.04 78.55,123.84 77.94,124.57 C76.23,126.63 77.76,129.72 81.07,130.88 L 84.06 131.92 L 82.40 135.71 C81.49,137.79 79.87,142.88 78.81,147.00 C76.50,155.99 76.93,167.38 79.94,177.06 L 81.88 183.30 L 79.44 185.22 C78.10,186.28 77.00,187.64 77.00,188.24 C77.00,190.54 80.39,193.00 83.55,193.00 C86.22,193.00 88.00,194.20 93.65,199.83 C103.58,209.72 114.45,215.18 128.50,217.33 C133.00,218.02 143.73,217.05 150.50,215.34 ZM 212.82 187.74 C213.23,184.19 209.48,182.35 206.75,184.77 C203.54,187.60 205.54,191.31 209.99,190.79 C211.90,190.57 212.58,189.84 212.82,187.74 ZM 66.75 85.22 C65.16,84.89 65.00,83.20 65.00,67.10 L 65.00 49.35 L 67.58 46.92 L 70.16 44.50 L 131.83 44.21 C165.75,44.05 195.01,44.19 196.86,44.52 C198.71,44.86 201.30,46.21 202.61,47.52 C204.95,49.86 205.00,50.29 205.00,67.45 L 205.00 85.00 L 138.75 85.08 C102.31,85.13 71.60,85.26 70.50,85.37 C69.40,85.49 67.71,85.42 66.75,85.22 ZM 145.42 76.39 C147.28,75.68 147.51,71.91 145.80,70.20 C144.91,69.31 135.53,69.00 109.78,69.00 L 74.96 69.00 L 73.83 71.47 C72.97,73.36 73.00,74.30 73.98,75.47 C75.07,76.79 79.98,77.00 109.54,77.00 C128.40,77.00 144.55,76.73 145.42,76.39 ZM 191.08 75.29 C200.50,69.73 197.81,54.98 187.00,53.00 C179.51,51.63 173.56,55.75 172.36,63.14 C171.63,67.66 174.25,73.52 177.88,75.50 C181.47,77.44 187.60,77.35 191.08,75.29 ZM 79.95 59.56 C81.86,57.25 80.84,53.55 78.19,53.17 C73.77,52.55 71.54,56.40 74.57,59.43 C76.53,61.39 78.40,61.43 79.95,59.56 ZM 97.17 58.53 C98.64,55.30 96.71,52.78 93.09,53.20 C91.26,53.41 90.40,54.18 90.17,55.81 C89.47,60.78 95.14,62.99 97.17,58.53 ZM 112.80 59.80 C116.43,56.17 111.59,50.38 107.75,53.77 C105.58,55.68 105.53,57.39 107.57,59.43 C109.45,61.31 111.17,61.43 112.80,59.80 ZM 129.43 59.43 C132.46,56.40 130.23,52.55 125.81,53.17 C123.16,53.55 122.14,57.25 124.05,59.56 C125.60,61.43 127.47,61.39 129.43,59.43 ZM 145.95 59.56 C147.86,57.25 146.84,53.55 144.19,53.17 C139.77,52.55 137.54,56.40 140.57,59.43 C142.53,61.39 144.40,61.43 145.95,59.56 ZM 124.25 207.94 C117.44,206.60 107.48,201.31 101.78,196.02 L 96.50 191.12 L 99.25 188.52 C104.06,183.97 101.89,180.28 95.03,181.38 C91.62,181.92 90.91,181.71 89.89,179.80 C86.29,173.06 84.83,157.05 87.05,148.50 C89.47,139.17 94.13,130.82 100.27,124.81 C107.63,117.61 122.44,110.36 128.15,111.17 C130.32,111.47 130.52,112.03 130.80,118.24 C131.04,123.72 131.46,125.17 133.05,126.02 C134.41,126.76 135.60,126.75 137.00,126.00 C138.68,125.10 139.00,123.91 139.00,118.43 C139.00,110.75 139.64,110.25 147.24,112.02 C163.12,115.71 177.38,129.77 182.56,146.84 C185.39,156.14 183.76,174.85 179.63,180.49 C178.49,182.05 177.85,182.14 175.05,181.17 C168.47,178.87 165.23,184.72 170.75,188.93 L 173.50 191.03 L 168.22 195.87 C156.13,206.95 140.70,211.19 124.25,207.94 ZM 118.00 179.16 C124.51,172.64 124.13,162.73 117.06,154.75 C114.45,151.80 112.13,151.27 110.20,153.20 C108.37,155.03 108.75,157.27 111.50,161.00 C114.50,165.06 114.68,169.57 112.00,173.00 C109.77,175.85 109.44,179.04 111.20,180.80 C113.08,182.68 114.92,182.23 118.00,179.16 ZM 138.19 179.25 C141.99,175.17 143.00,172.66 143.00,167.27 C143.00,163.43 142.27,161.26 139.53,156.95 C135.52,150.67 135.16,147.34 138.07,143.64 C140.44,140.63 140.30,137.21 137.75,135.61 C135.52,134.21 133.30,135.51 130.25,139.99 C126.72,145.18 127.09,153.20 131.17,159.55 C134.93,165.41 135.24,169.61 132.18,173.50 C129.94,176.35 130.02,179.68 132.38,181.23 C134.31,182.51 135.55,182.08 138.19,179.25 ZM 159.80 176.91 C160.22,173.29 157.70,171.36 154.47,172.83 C150.05,174.84 152.06,180.37 156.99,179.79 C158.85,179.58 159.58,178.83 159.80,176.91 ZM 160.80 163.80 C162.68,161.92 162.22,159.05 159.50,155.82 C156.43,152.17 156.27,147.71 159.04,143.16 C162.71,137.14 158.29,132.51 153.32,137.16 C146.18,143.82 146.23,153.20 153.44,161.75 C156.30,165.14 158.77,165.83 160.80,163.80 ZM 116.07 143.96 C118.66,142.57 118.57,138.38 115.92,136.96 C114.25,136.07 113.45,136.19 111.92,137.58 C109.59,139.68 109.49,141.35 111.57,143.43 C113.43,145.29 113.56,145.30 116.07,143.96 ZM 182.75 67.92 C179.07,65.78 181.85,60.18 185.95,61.48 C188.24,62.21 188.73,65.87 186.80,67.80 C185.37,69.23 185.02,69.24 182.75,67.92 Z" fill="rgb(254,254,254)"/>
</g>
</svg>