<?xml version="1.0" standalone="no"?>
<!DOCTYPE svg PUBLIC "-//W3C//DTD SVG 20010904//EN"
 "http://www.w3.org/TR/2001/REC-SVG-20010904/DTD/svg10.dtd">
<svg version="1.0" xmlns="http://www.w3.org/2000/svg"
 width="75.000000pt" height="84.000000pt" viewBox="0 0 75.000000 84.000000"
 preserveAspectRatio="xMidYMid meet">

<g transform="translate(0.000000,84.000000) scale(0.100000,-0.100000)"
fill="#000000" stroke="none">
<path d="M289 746 c-60 -16 -103 -48 -124 -93 -15 -32 -16 -45 -6 -98 8 -44 8
-71 1 -92 -13 -36 0 -77 30 -93 11 -6 20 -17 20 -24 0 -7 9 -25 20 -39 30 -37
26 -62 -12 -78 -41 -16 -91 -49 -84 -56 3 -3 17 4 33 15 46 32 70 36 83 13 24
-47 130 -44 168 4 l19 24 51 -24 c29 -13 52 -20 52 -16 0 9 -91 51 -109 51 -6
0 -11 8 -11 18 0 26 43 111 58 112 7 0 20 16 29 36 16 32 16 38 2 63 -10 17
-13 34 -8 46 25 64 -4 165 -50 180 -12 3 -21 10 -21 15 0 13 -39 36 -70 43
-14 3 -46 0 -71 -7z m142 -197 c19 -24 29 -49 29 -70 0 -31 1 -32 14 -13 13
17 15 17 21 2 12 -31 1 -73 -22 -83 -12 -5 -24 -19 -28 -32 -3 -12 -21 -38
-40 -58 -48 -47 -97 -49 -143 -4 -18 18 -35 42 -38 55 -3 13 -17 30 -30 39
-18 11 -24 25 -24 50 0 19 5 35 10 35 6 0 10 -4 10 -10 0 -5 3 -10 8 -10 4 0
8 21 9 47 1 25 7 51 13 57 7 7 10 6 10 -3 0 -10 6 -10 24 3 17 10 26 12 28 4
6 -16 70 7 94 33 14 15 20 17 23 7 2 -7 17 -29 32 -49z m-18 -304 c10 -56 -94
-88 -144 -44 -17 14 -20 22 -11 25 6 3 12 12 12 19 0 10 7 11 34 3 26 -8 40
-7 62 5 40 21 41 20 47 -8z"/>
<path d="M240 520 c-11 -7 -4 -10 25 -10 29 0 36 3 25 10 -8 5 -19 10 -25 10
-5 0 -17 -5 -25 -10z"/>
<path d="M360 520 c-11 -7 -5 -10 23 -10 23 0 36 4 32 10 -8 13 -35 13 -55 0z"/>
<path d="M254 466 c-4 -10 -2 -22 4 -28 8 -8 13 -7 18 6 4 10 2 22 -4 28 -8 8
-13 7 -18 -6z"/>
<path d="M377 466 c-6 -15 1 -26 15 -26 11 0 10 27 -1 34 -5 3 -11 0 -14 -8z"/>
<path d="M310 406 c0 -25 16 -43 28 -31 3 3 0 10 -7 15 -8 4 -11 15 -8 24 4 9
2 16 -3 16 -6 0 -10 -11 -10 -24z"/>
<path d="M308 333 c12 -2 32 -2 45 0 12 2 2 4 -23 4 -25 0 -35 -2 -22 -4z"/>
</g>
</svg>
