<svg xmlns="http://www.w3.org/2000/svg" width="225" height="213" viewBox="0 0 225 213">
<g>
<path d="M 188.46 121.40 C187.02,122.84 179.99,123.00 120.13,123.00 C69.56,123.00 53.11,122.71 52.20,121.80 C51.40,121.00 51.00,116.56 51.00,108.40 L 51.00 96.20 L 54.52 94.12 C58.13,91.99 58.36,91.63 59.48,86.59 C59.83,84.99 61.62,82.18 63.46,80.34 L 66.80 77.00 L 81.28 77.00 C91.67,77.00 96.03,76.65 96.74,75.75 C97.29,75.06 97.98,72.51 98.29,70.09 C99.06,64.04 101.68,60.92 107.56,59.06 L 112.50 57.50 L 112.77 30.71 L 113.03 3.91 L 120.27 4.21 L 127.50 4.50 L 127.77 30.42 C127.93,46.13 128.44,56.82 129.05,57.56 C129.61,58.24 131.52,59.07 133.29,59.42 C139.00,60.53 141.17,63.07 142.44,70.11 L 143.60 76.50 L 158.88 77.00 L 174.16 77.50 L 177.58 81.24 C179.73,83.58 181.01,86.00 181.02,87.74 C181.04,91.56 182.28,93.16 186.17,94.42 L 189.50 95.50 L 189.78 107.65 C190.01,117.71 189.79,120.07 188.46,121.40 ZM 212.10 196.39 L 208.28 201.50 L 120.30 201.76 C36.06,202.00 32.25,201.93 30.66,200.18 C28.25,197.51 28.54,195.42 33.12,182.83 C35.39,176.60 38.79,167.00 40.68,161.50 C42.57,156.00 45.49,147.90 47.16,143.50 C48.84,139.10 50.67,134.26 51.23,132.75 C52.10,130.40 52.80,130.00 56.12,130.00 C60.78,130.00 60.96,130.97 57.90,139.59 C46.90,170.57 41.67,186.02 41.27,188.75 C40.80,191.89 40.90,192.00 44.30,192.00 C47.73,192.00 47.89,191.82 50.37,185.25 C54.23,175.00 58.01,164.04 59.54,158.68 C63.26,145.67 68.34,131.00 69.12,131.00 C70.58,131.00 70.11,132.94 65.41,146.50 C58.18,167.32 52.00,187.63 52.00,190.55 C52.00,191.50 53.05,192.00 55.05,192.00 C58.75,192.00 59.67,190.15 63.50,174.94 C64.94,169.20 67.18,161.35 68.47,157.50 C69.77,153.65 71.58,147.80 72.50,144.50 C75.43,134.03 76.12,132.04 77.07,131.45 C78.76,130.41 78.02,134.38 74.44,145.50 C72.49,151.55 70.46,158.52 69.91,161.00 C69.37,163.48 67.63,169.55 66.04,174.50 C61.68,188.10 61.38,190.60 63.90,191.95 C66.94,193.57 69.54,191.80 70.77,187.28 C73.76,176.25 77.30,162.81 80.96,148.52 C83.22,139.73 85.50,132.10 86.03,131.57 C87.77,129.83 87.10,135.44 84.50,144.40 C83.12,149.15 82.00,153.71 82.00,154.55 C82.00,155.38 81.15,158.64 80.12,161.78 C79.09,164.93 77.03,172.66 75.55,178.96 C73.04,189.68 72.97,190.51 74.57,191.67 C78.10,194.26 79.45,191.77 83.38,175.32 C85.46,166.62 87.78,157.70 88.52,155.50 C89.27,153.30 90.82,147.04 91.97,141.59 C94.21,131.05 94.58,130.00 96.06,130.00 C97.51,130.00 97.21,132.38 94.58,141.81 C89.75,159.15 82.88,189.24 83.42,190.66 C84.16,192.58 91.00,192.06 92.09,190.00 C92.99,188.31 101.00,154.47 103.88,140.20 C105.88,130.32 106.44,129.04 108.05,130.65 C108.73,131.33 107.96,136.02 105.68,145.08 C103.82,152.46 101.06,164.35 99.56,171.50 C98.05,178.65 96.42,185.51 95.94,186.74 C94.51,190.35 95.78,192.00 99.99,192.00 C104.31,192.00 105.44,190.19 106.55,181.50 C106.90,178.75 107.57,174.93 108.05,173.00 C108.52,171.07 109.61,163.79 110.46,156.80 C111.31,149.82 112.46,142.93 113.00,141.49 C113.55,140.05 114.00,137.35 114.00,135.49 C114.00,132.28 115.35,130.10 116.31,131.73 C117.18,133.20 112.42,163.32 107.49,187.51 C106.80,190.89 108.29,191.87 115.18,192.58 C122.85,193.36 130.61,192.45 131.29,190.68 C131.80,189.35 129.71,175.23 125.49,151.50 C124.03,143.25 122.58,135.04 122.28,133.25 C121.85,130.67 122.08,130.00 123.39,130.00 C125.63,130.00 126.54,132.80 127.99,144.01 C129.39,154.88 132.70,178.58 133.64,184.50 C134.67,190.96 135.57,192.00 140.17,192.00 L 144.28 192.00 L 143.62 186.25 C143.26,183.09 142.10,176.68 141.04,172.00 C133.35,137.91 131.79,129.19 133.82,131.55 C134.63,132.50 136.46,139.80 141.60,162.50 C143.09,169.10 144.65,174.95 145.06,175.50 C145.47,176.05 146.11,178.75 146.48,181.50 C147.57,189.69 148.87,192.15 151.89,191.80 C154.26,191.53 154.48,191.13 154.28,187.50 C154.15,185.30 153.14,180.12 152.03,176.00 C145.20,150.72 141.08,132.07 142.17,131.40 C142.63,131.11 143.21,131.46 143.46,132.19 C144.04,133.93 148.23,150.77 151.50,164.50 C156.83,186.85 157.74,191.06 159.90,191.83 C160.39,192.01 160.96,192.01 161.66,192.00 C161.78,192.00 161.90,192.00 162.04,192.00 C165.81,192.00 165.85,190.55 162.45,177.95 C161.04,172.75 159.28,165.73 158.52,162.35 C157.76,158.96 156.45,154.15 155.60,151.65 C154.75,149.14 153.85,146.06 153.61,144.80 C153.36,143.53 152.63,140.11 151.98,137.18 C151.33,134.26 151.07,131.59 151.40,131.26 C152.76,129.91 153.41,131.88 157.96,151.00 C160.72,162.57 167.04,186.18 168.20,189.25 C168.99,191.33 169.91,192.00 172.00,192.00 C176.31,192.00 177.04,190.28 175.40,184.00 C174.61,180.97 173.79,177.57 173.58,176.43 C173.37,175.30 171.86,169.90 170.22,164.43 C163.78,142.98 160.82,131.85 161.40,131.27 C162.41,130.25 162.69,131.00 167.51,147.49 C170.08,156.28 172.59,164.24 173.09,165.17 C173.59,166.11 174.00,167.84 174.00,169.03 C174.00,170.21 175.17,174.63 176.60,178.84 C179.96,188.71 180.70,191.20 182.21,191.81 C182.72,192.02 183.32,192.01 184.13,192.00 C184.29,192.00 184.47,192.00 184.65,192.00 C186.76,192.00 188.28,191.43 188.64,190.50 C188.96,189.67 186.06,179.89 182.20,168.75 C172.04,139.39 169.71,131.95 170.45,131.22 C171.52,130.15 172.48,132.41 177.50,147.84 C180.12,155.90 183.29,165.20 184.54,168.50 C185.79,171.80 187.61,177.43 188.58,181.00 C190.93,189.64 192.54,192.00 196.06,192.00 C196.30,192.00 196.53,192.00 196.75,192.01 C197.74,192.02 198.50,192.04 198.95,191.67 C200.42,190.46 198.51,185.15 190.35,162.37 C189.80,160.83 189.21,159.21 188.60,157.50 C183.88,144.30 180.01,132.75 180.00,131.83 C180.00,129.82 181.40,129.26 185.09,129.80 C187.62,130.17 188.26,131.25 192.34,141.85 C194.81,148.26 200.26,163.15 204.46,174.95 ZM 56.08 116.59 C57.06,117.77 67.21,118.00 119.55,118.00 C175.54,118.00 182.02,117.84 183.47,116.39 C184.72,115.14 185.02,113.15 184.79,107.64 L 184.50 100.50 L 55.50 100.50 L 55.20 107.84 C55.02,112.39 55.35,115.72 56.08,116.59 ZM 66.20 93.80 C67.78,95.38 170.12,95.54 173.07,93.96 C175.56,92.63 175.53,89.53 173.00,87.00 C171.05,85.05 169.67,85.00 120.00,85.00 C70.33,85.00 68.95,85.05 67.00,87.00 C64.74,89.26 64.42,92.02 66.20,93.80 ZM 103.71 76.38 C104.10,76.77 105.52,76.96 106.86,76.80 C109.24,76.51 110.28,75.34 111.41,71.71 C111.90,70.14 113.04,69.96 120.73,70.21 L 129.49 70.50 L 130.00 73.50 C130.37,75.68 131.14,76.59 132.81,76.83 C138.21,77.59 139.93,70.84 135.47,66.38 C132.97,63.88 132.75,63.85 119.39,64.17 C107.34,64.46 105.68,64.72 104.42,66.44 C102.94,68.46 102.47,75.14 103.71,76.38 Z" fill="rgb(230,233,234)"/>
<path d="M 212.10 196.39 L 204.46 174.95 C200.26,163.15 194.81,148.26 192.34,141.85 C188.26,131.25 187.62,130.17 185.09,129.80 C181.40,129.26 180.00,129.82 180.00,131.83 C180.01,132.75 183.88,144.30 188.60,157.50 C189.21,159.21 189.80,160.83 190.35,162.37 C198.51,185.15 200.42,190.46 198.95,191.67 C198.50,192.04 197.74,192.02 196.75,192.01 C196.53,192.00 196.30,192.00 196.06,192.00 C192.54,192.00 190.93,189.64 188.58,181.00 C187.61,177.43 185.79,171.80 184.54,168.50 C183.29,165.20 180.12,155.90 177.50,147.84 C172.48,132.41 171.52,130.15 170.45,131.22 C169.71,131.95 172.04,139.39 182.20,168.75 C186.06,179.89 188.96,189.67 188.64,190.50 C188.28,191.43 186.76,192.00 184.65,192.00 C184.47,192.00 184.29,192.00 184.13,192.00 C183.32,192.01 182.72,192.02 182.21,191.81 C180.70,191.20 179.96,188.71 176.60,178.84 C175.17,174.63 174.00,170.21 174.00,169.03 C174.00,167.84 173.59,166.11 173.09,165.17 C172.59,164.24 170.08,156.28 167.51,147.49 C162.69,131.00 162.41,130.25 161.40,131.27 C160.82,131.85 163.78,142.98 170.22,164.43 C171.86,169.90 173.37,175.30 173.58,176.43 C173.79,177.57 174.61,180.97 175.40,184.00 C175.68,185.06 175.89,185.99 176.02,186.80 C175.89,186.49 175.73,186.16 175.54,185.79 C173.42,181.54 159.08,132.86 159.02,129.68 C159.01,129.23 160.01,129.00 161.25,129.18 C163.91,129.56 164.62,131.49 174.63,165.90 C178.37,178.76 182.06,189.92 182.83,190.69 C184.49,192.34 186.38,191.94 186.79,189.85 C186.95,189.03 182.79,175.44 177.54,159.64 C172.29,143.85 168.00,130.50 168.00,129.96 C168.00,129.43 168.94,129.00 170.08,129.00 C172.64,129.00 172.82,129.43 184.50,163.92 C192.48,187.49 193.76,190.54 195.75,190.82 C198.83,191.26 198.69,189.00 195.04,179.34 C188.57,162.18 178.80,133.36 178.65,131.00 C178.51,128.71 178.89,128.48 183.19,128.20 C186.88,127.96 188.08,128.28 188.83,129.70 C190.94,133.66 213.00,194.66 213.00,196.53 C213.00,197.19 212.07,198.92 210.93,200.37 L 208.85 203.00 L 120.08 203.00 C35.35,203.00 31.23,202.92 29.65,201.17 C28.74,200.17 28.00,198.01 28.00,196.38 C28.00,194.75 32.30,181.51 37.56,166.96 C42.82,152.41 48.03,137.96 49.12,134.85 C51.00,129.54 51.33,129.18 54.81,128.77 C59.42,128.22 62.00,128.85 62.00,130.52 C62.00,131.22 59.49,138.93 56.42,147.65 C46.17,176.75 42.00,189.02 42.00,190.08 C42.00,190.66 43.18,190.99 44.62,190.82 C47.13,190.51 47.70,189.14 57.37,160.00 C66.42,132.77 67.74,129.47 69.75,129.18 C71.22,128.97 72.00,129.38 72.00,130.35 C72.00,131.17 67.98,144.14 63.06,159.17 C58.14,174.20 53.98,187.40 53.81,188.50 C53.59,189.94 54.06,190.50 55.50,190.50 C55.64,190.50 55.76,190.51 55.88,190.52 C56.05,190.53 56.21,190.55 56.35,190.52 C57.71,190.30 58.55,186.99 68.09,153.63 C71.37,142.15 74.51,131.91 75.07,130.88 C76.19,128.78 80.01,128.30 79.99,130.25 C79.97,132.16 71.78,160.83 66.07,179.00 C63.79,186.26 63.45,190.55 65.10,191.56 C67.38,192.97 68.99,188.86 74.48,167.50 C83.24,133.47 84.12,129.94 85.97,129.33 C86.21,129.25 86.46,129.22 86.75,129.18 C88.65,128.91 89.00,129.32 89.00,131.87 C89.00,133.52 88.52,136.12 87.94,137.66 C86.34,141.87 75.00,187.08 75.00,189.25 C75.00,190.49 75.58,191.03 76.68,190.82 C78.00,190.57 79.98,183.99 85.93,160.00 C92.93,131.81 93.67,129.48 95.75,129.18 C98.77,128.75 98.69,130.38 94.99,145.04 C90.21,163.98 85.00,186.95 85.00,189.09 C85.00,191.70 87.76,192.67 89.68,190.74 C91.25,189.18 91.83,187.08 96.94,164.50 C104.76,129.94 105.05,129.00 107.63,129.00 C109.04,129.00 110.00,129.59 110.00,130.46 C110.00,131.26 107.28,143.74 103.95,158.21 C103.73,159.19 103.50,160.15 103.29,161.08 C97.27,187.25 96.54,190.44 97.61,191.25 C97.79,191.39 98.03,191.46 98.31,191.57 C102.35,193.12 103.32,190.78 106.75,171.34 C108.57,160.98 110.84,147.32 111.78,141.00 C113.39,130.23 113.65,129.48 115.88,129.16 C118.24,128.83 118.25,128.87 117.52,135.66 C117.12,139.42 115.04,153.06 112.90,165.97 C109.53,186.26 109.20,189.62 110.43,190.86 C111.51,191.93 114.66,192.58 118.20,192.80 C117.21,192.76 116.19,192.68 115.18,192.58 C108.29,191.87 106.80,190.89 107.49,187.51 C112.42,163.32 117.18,133.20 116.31,131.73 C115.35,130.10 114.00,132.28 114.00,135.49 C114.00,137.35 113.55,140.05 113.00,141.49 C112.46,142.93 111.31,149.82 110.46,156.80 C109.61,163.79 108.52,171.07 108.05,173.00 C107.57,174.93 106.90,178.75 106.55,181.50 C105.44,190.19 104.31,192.00 99.99,192.00 C95.78,192.00 94.51,190.35 95.94,186.74 C96.42,185.51 98.05,178.65 99.56,171.50 C101.06,164.35 103.82,152.46 105.68,145.08 C107.96,136.02 108.73,131.33 108.05,130.65 C106.44,129.04 105.88,130.32 103.88,140.20 C101.00,154.47 92.99,188.31 92.09,190.00 C91.00,192.06 84.16,192.58 83.42,190.66 C82.88,189.24 89.75,159.15 94.58,141.81 C97.21,132.38 97.51,130.00 96.06,130.00 C94.58,130.00 94.21,131.05 91.97,141.59 C90.82,147.04 89.27,153.30 88.52,155.50 C87.78,157.70 85.46,166.62 83.38,175.32 C79.45,191.77 78.10,194.26 74.57,191.67 C72.97,190.51 73.04,189.68 75.55,178.96 C77.03,172.66 79.09,164.93 80.12,161.78 C81.15,158.64 82.00,155.38 82.00,154.55 C82.00,153.71 83.12,149.15 84.50,144.40 C87.10,135.44 87.77,129.83 86.03,131.57 C85.50,132.10 83.22,139.73 80.96,148.52 C77.30,162.81 73.76,176.25 70.77,187.28 C69.54,191.80 66.94,193.57 63.90,191.95 C61.38,190.60 61.68,188.10 66.04,174.50 C67.63,169.55 69.37,163.48 69.91,161.00 C70.46,158.52 72.49,151.55 74.44,145.50 C78.02,134.38 78.76,130.41 77.07,131.45 C76.12,132.04 75.43,134.03 72.50,144.50 C71.58,147.80 69.77,153.65 68.47,157.50 C67.18,161.35 64.94,169.20 63.50,174.94 C59.67,190.15 58.75,192.00 55.05,192.00 C53.05,192.00 52.00,191.50 52.00,190.55 C52.00,187.63 58.18,167.32 65.41,146.50 C70.11,132.94 70.58,131.00 69.12,131.00 C68.34,131.00 63.26,145.67 59.54,158.68 C58.01,164.04 54.23,175.00 50.37,185.25 C47.89,191.82 47.73,192.00 44.30,192.00 C40.90,192.00 40.80,191.89 41.27,188.75 C41.67,186.02 46.90,170.57 57.90,139.59 C60.96,130.97 60.78,130.00 56.12,130.00 C52.80,130.00 52.10,130.40 51.23,132.75 C50.67,134.26 48.84,139.10 47.16,143.50 C45.49,147.90 42.57,156.00 40.68,161.50 C38.79,167.00 35.39,176.60 33.12,182.83 C28.54,195.42 28.25,197.51 30.66,200.18 C32.25,201.93 36.06,202.00 120.30,201.76 L 208.28 201.50 ZM 66.20 93.80 C64.42,92.02 64.74,89.26 67.00,87.00 C68.95,85.05 70.33,85.00 120.00,85.00 C169.67,85.00 171.05,85.05 173.00,87.00 C175.53,89.53 175.56,92.63 173.07,93.96 C170.12,95.54 67.78,95.38 66.20,93.80 ZM 69.00 92.01 C69.90,92.59 90.54,92.98 120.78,92.98 C166.53,93.00 171.12,92.85 171.69,91.36 C173.32,87.13 171.27,86.97 119.16,87.24 C73.01,87.48 69.64,87.62 68.61,89.28 C67.75,90.66 67.84,91.27 69.00,92.01 ZM 173.30 191.93 C172.91,191.98 172.48,192.00 172.00,192.00 C169.91,192.00 168.99,191.33 168.20,189.25 C167.04,186.18 160.72,162.57 157.96,151.00 C153.41,131.88 152.76,129.91 151.40,131.26 C151.07,131.59 151.33,134.26 151.98,137.18 C152.63,140.11 153.36,143.53 153.61,144.80 C153.85,146.06 154.75,149.14 155.60,151.65 C156.45,154.15 157.76,158.96 158.52,162.35 C159.28,165.73 161.04,172.75 162.45,177.95 C165.85,190.55 165.81,192.00 162.04,192.00 C161.90,192.00 161.78,192.00 161.66,192.00 C160.96,192.01 160.39,192.01 159.90,191.83 C157.74,191.06 156.83,186.85 151.50,164.50 C148.23,150.77 144.04,133.93 143.46,132.19 C143.21,131.46 142.63,131.11 142.17,131.40 C141.08,132.07 145.20,150.72 152.03,176.00 C153.14,180.12 154.15,185.30 154.28,187.50 C154.47,191.03 154.27,191.50 152.09,191.78 C153.84,190.68 152.66,184.85 146.50,160.08 C142.93,145.69 140.00,132.82 140.00,131.46 C140.00,129.72 140.55,129.00 141.88,129.00 C144.18,129.00 145.32,131.69 148.02,143.50 C155.18,174.80 159.15,189.88 160.52,191.02 C161.36,191.71 162.08,191.61 162.84,190.70 C163.87,189.46 159.19,169.30 151.06,139.98 C148.46,130.58 148.45,129.00 151.02,129.00 C153.45,129.00 154.29,130.81 157.06,142.00 C162.61,164.42 170.12,190.46 171.24,191.17 C171.99,191.64 172.67,191.90 173.30,191.93 ZM 145.82 177.81 C145.55,176.65 145.28,175.79 145.06,175.50 C144.65,174.95 143.09,169.10 141.60,162.50 C136.46,139.80 134.63,132.50 133.82,131.55 C131.79,129.19 133.35,137.91 141.04,172.00 C142.10,176.68 143.26,183.09 143.62,186.25 L 144.28 192.00 L 140.17 192.00 C135.57,192.00 134.67,190.96 133.64,184.50 C132.70,178.58 129.39,154.88 127.99,144.01 C127.86,143.04 127.74,142.13 127.62,141.28 C128.20,144.36 128.85,147.92 129.51,151.67 C135.64,186.47 136.16,189.83 137.95,190.78 C138.22,190.92 138.53,191.01 138.88,191.15 C140.43,191.73 141.69,191.71 142.31,191.09 C143.27,190.13 142.62,186.63 134.04,146.17 C132.37,138.29 131.00,131.20 131.00,130.42 C131.00,128.96 134.52,128.41 135.34,129.75 C136.06,130.91 144.02,167.53 145.82,177.81 ZM 149.11 190.83 C148.01,189.58 147.28,187.05 146.65,182.71 C147.44,187.00 148.19,189.52 149.11,190.83 ZM 125.85 132.40 C125.32,130.96 124.73,130.29 123.98,130.08 C124.63,130.22 125.22,130.54 125.45,130.92 C125.52,131.03 125.66,131.55 125.85,132.40 ZM 123.35 130.00 C122.85,130.01 122.52,130.11 122.32,130.39 C122.51,130.11 122.84,130.00 123.31,130.00 C123.32,130.00 123.34,130.00 123.35,130.00 ZM 175.35 191.17 C175.32,191.20 175.29,191.23 175.26,191.25 C175.29,191.23 175.32,191.20 175.35,191.17 Z" fill="rgb(236,238,239)"/>
<path d="M 211.39 202.67 C208.73,204.41 204.09,204.51 121.54,204.67 C73.67,204.77 33.39,204.53 32.03,204.14 C30.68,203.75 28.70,201.94 27.64,200.13 L 25.72 196.83 L 28.34 188.67 C30.87,180.83 36.14,165.89 42.00,150.00 C43.52,145.88 45.91,139.40 47.30,135.61 C48.69,131.82 50.43,128.34 51.17,127.88 C51.90,127.41 54.61,127.02 57.19,127.02 C60.78,127.00 62.22,127.48 63.30,129.02 C64.52,130.76 64.89,130.84 65.92,129.60 C67.36,127.86 80.12,127.61 81.17,129.30 C81.65,130.06 82.23,130.06 83.17,129.31 C85.01,127.83 99.02,127.86 99.55,129.35 C99.79,129.98 99.09,133.88 98.02,138.00 C96.94,142.12 94.69,151.80 93.02,159.50 C91.34,167.20 89.08,176.72 87.99,180.66 C85.60,189.27 85.56,190.00 87.52,190.00 C89.46,190.00 90.68,186.77 93.00,175.50 C94.02,170.55 95.76,162.90 96.86,158.50 C97.97,154.10 99.87,146.04 101.10,140.59 C103.30,130.77 105.84,126.16 108.23,127.64 C108.87,128.04 113.13,128.26 117.69,128.13 C118.27,128.11 118.80,128.09 119.31,128.08 C122.23,127.97 124.07,127.91 125.36,128.72 C127.79,130.23 128.30,134.82 130.41,148.00 C135.21,177.91 137.12,187.51 138.55,188.96 C141.20,191.65 141.95,188.88 140.42,182.00 C139.63,178.43 137.88,170.55 136.54,164.50 C130.42,137.02 128.99,129.82 129.48,129.04 C130.22,127.83 144.25,128.04 145.79,129.28 C146.69,130.00 147.43,129.97 148.24,129.16 C150.16,127.24 153.83,127.82 155.13,130.23 C155.78,131.46 157.10,135.85 158.05,139.98 C160.54,150.81 169.81,185.10 170.97,187.75 C172.09,190.30 174.00,190.77 174.00,188.49 C174.00,187.66 172.40,181.70 170.44,175.24 C161.75,146.59 157.91,132.63 158.19,130.64 C158.47,128.70 159.17,128.48 165.69,128.31 C172.75,128.13 172.92,128.19 175.01,131.31 C176.34,133.32 176.92,133.74 176.56,132.45 C175.67,129.23 178.15,126.81 182.75,126.42 C185.61,126.17 187.44,126.59 188.76,127.78 C190.77,129.59 195.37,140.87 201.91,160.00 C204.07,166.32 207.52,176.00 209.58,181.50 C211.63,187.00 213.51,193.60 213.75,196.17 C214.14,200.40 213.92,201.01 211.39,202.67 ZM 0.00 0.00 L 225.00 0.00 L 225.00 0.15 L 177.75 0.68 C151.76,0.97 130.34,1.36 130.14,1.55 C129.31,2.33 129.00,34.38 129.72,44.96 L 130.50 56.42 L 133.50 57.04 C140.43,58.46 142.76,61.12 143.86,68.87 L 144.52 73.50 L 158.69 74.00 C170.96,74.43 173.22,74.78 175.62,76.56 C179.53,79.48 182.09,83.20 182.89,87.12 C183.42,89.72 184.42,90.90 187.24,92.24 C191.75,94.37 192.33,96.76 191.85,111.01 C191.53,120.28 191.29,121.35 189.14,123.09 C186.87,124.93 184.26,125.00 120.64,124.99 C69.44,124.97 53.94,124.69 52.00,123.71 C49.66,122.53 49.47,121.84 49.00,112.97 C48.19,97.69 48.64,95.14 52.54,92.84 C54.75,91.54 56.10,89.83 56.56,87.74 C57.52,83.37 60.90,78.50 64.48,76.33 C66.89,74.87 70.33,74.40 81.42,74.00 L 95.35 73.50 L 96.47 67.84 C97.86,60.90 99.09,59.34 104.37,57.83 C106.44,57.24 107.87,56.96 108.86,56.14 C111.08,54.29 111.01,49.67 110.74,32.47 C110.72,31.16 110.70,29.78 110.68,28.32 C110.46,13.81 110.10,1.77 109.89,1.56 C109.68,1.35 84.86,0.95 54.75,0.67 L 0.00 0.16 ZM 173.30 191.93 C172.67,191.90 171.99,191.64 171.24,191.17 C170.12,190.46 162.61,164.42 157.06,142.00 C154.29,130.81 153.45,129.00 151.02,129.00 C148.45,129.00 148.46,130.58 151.06,139.98 C159.19,169.30 163.87,189.46 162.84,190.70 C162.08,191.61 161.36,191.71 160.52,191.02 C159.15,189.88 155.18,174.80 148.02,143.50 C145.32,131.69 144.18,129.00 141.88,129.00 C140.55,129.00 140.00,129.72 140.00,131.46 C140.00,132.82 142.93,145.69 146.50,160.08 C152.66,184.85 153.84,190.68 152.09,191.78 C152.03,191.79 151.96,191.79 151.89,191.80 C150.75,191.94 149.85,191.66 149.11,190.83 C148.19,189.52 147.44,187.00 146.65,182.71 C146.59,182.32 146.53,181.92 146.48,181.50 C146.30,180.18 146.06,178.87 145.82,177.81 C144.02,167.53 136.06,130.91 135.34,129.75 C134.52,128.41 131.00,128.96 131.00,130.42 C131.00,131.20 132.37,138.29 134.04,146.17 C142.62,186.63 143.27,190.13 142.31,191.09 C141.69,191.71 140.43,191.73 138.88,191.15 C138.53,191.01 138.22,190.92 137.95,190.78 C136.16,189.83 135.64,186.47 129.51,151.67 C128.85,147.92 128.20,144.36 127.62,141.28 C127.01,136.91 126.48,134.11 125.85,132.40 C125.66,131.55 125.52,131.03 125.45,130.92 C125.22,130.54 124.63,130.22 123.98,130.08 C123.80,130.02 123.60,130.00 123.39,130.00 C123.38,130.00 123.36,130.00 123.35,130.00 C123.34,130.00 123.32,130.00 123.31,130.00 C122.84,130.00 122.51,130.11 122.32,130.39 C122.00,130.83 122.02,131.69 122.28,133.25 C122.58,135.04 124.03,143.25 125.49,151.50 C129.71,175.23 131.80,189.35 131.29,190.68 C130.70,192.21 124.78,193.11 118.20,192.80 C114.66,192.58 111.51,191.93 110.43,190.86 C109.20,189.62 109.53,186.26 112.90,165.97 C115.04,153.06 117.12,139.42 117.52,135.66 C118.25,128.87 118.24,128.83 115.88,129.16 C113.65,129.48 113.39,130.23 111.78,141.00 C110.84,147.32 108.57,160.98 106.75,171.34 C103.32,190.78 102.35,193.12 98.31,191.57 C98.03,191.46 97.79,191.39 97.61,191.25 C96.54,190.44 97.27,187.25 103.29,161.08 C103.50,160.15 103.73,159.19 103.95,158.21 C107.28,143.74 110.00,131.26 110.00,130.46 C110.00,129.59 109.04,129.00 107.63,129.00 C105.05,129.00 104.76,129.94 96.94,164.50 C91.83,187.08 91.25,189.18 89.68,190.74 C87.76,192.67 85.00,191.70 85.00,189.09 C85.00,186.95 90.21,163.98 94.99,145.04 C98.69,130.38 98.77,128.75 95.75,129.18 C93.67,129.48 92.93,131.81 85.93,160.00 C79.98,183.99 78.00,190.57 76.68,190.82 C75.58,191.03 75.00,190.49 75.00,189.25 C75.00,187.08 86.34,141.87 87.94,137.66 C88.52,136.12 89.00,133.52 89.00,131.87 C89.00,129.32 88.65,128.91 86.75,129.18 C86.46,129.22 86.21,129.25 85.97,129.33 C84.12,129.94 83.24,133.47 74.48,167.50 C68.99,188.86 67.38,192.97 65.10,191.56 C63.45,190.55 63.79,186.26 66.07,179.00 C71.78,160.83 79.97,132.16 79.99,130.25 C80.01,128.30 76.19,128.78 75.07,130.88 C74.51,131.91 71.37,142.15 68.09,153.63 C58.55,186.99 57.71,190.30 56.35,190.52 C56.21,190.55 56.05,190.53 55.88,190.52 C55.76,190.51 55.64,190.50 55.50,190.50 C54.06,190.50 53.59,189.94 53.81,188.50 C53.98,187.40 58.14,174.20 63.06,159.17 C67.98,144.14 72.00,131.17 72.00,130.35 C72.00,129.38 71.22,128.97 69.75,129.18 C67.74,129.47 66.42,132.77 57.37,160.00 C47.70,189.14 47.13,190.51 44.62,190.82 C43.18,190.99 42.00,190.66 42.00,190.08 C42.00,189.02 46.17,176.75 56.42,147.65 C59.49,138.93 62.00,131.22 62.00,130.52 C62.00,128.85 59.42,128.22 54.81,128.77 C51.33,129.18 51.00,129.54 49.12,134.85 C48.03,137.96 42.82,152.41 37.56,166.96 C32.30,181.51 28.00,194.75 28.00,196.38 C28.00,198.01 28.74,200.17 29.65,201.17 C31.23,202.92 35.35,203.00 120.08,203.00 L 208.85 203.00 L 210.93 200.37 C212.07,198.92 213.00,197.19 213.00,196.53 C213.00,194.66 190.94,133.66 188.83,129.70 C188.08,128.28 186.88,127.96 183.19,128.20 C178.89,128.48 178.51,128.71 178.65,131.00 C178.80,133.36 188.57,162.18 195.04,179.34 C198.69,189.00 198.83,191.26 195.75,190.82 C193.76,190.54 192.48,187.49 184.50,163.92 C172.82,129.43 172.64,129.00 170.08,129.00 C168.94,129.00 168.00,129.43 168.00,129.96 C168.00,130.50 172.29,143.85 177.54,159.64 C182.79,175.44 186.95,189.03 186.79,189.85 C186.38,191.94 184.49,192.34 182.83,190.69 C182.06,189.92 178.37,178.76 174.63,165.90 C164.62,131.49 163.91,129.56 161.25,129.18 C160.01,129.00 159.01,129.23 159.02,129.68 C159.08,132.86 173.42,181.54 175.54,185.79 C175.73,186.16 175.89,186.49 176.02,186.80 C176.40,189.05 176.22,190.41 175.35,191.17 L 175.35 191.18 C175.32,191.20 175.29,191.23 175.26,191.25 C174.79,191.62 174.15,191.83 173.30,191.93 ZM 188.46 121.40 C189.79,120.07 190.01,117.71 189.78,107.65 L 189.50 95.50 L 186.17 94.42 C182.28,93.16 181.04,91.56 181.02,87.74 C181.01,86.00 179.73,83.58 177.58,81.24 L 174.16 77.50 L 158.88 77.00 L 143.60 76.50 L 142.44 70.11 C141.17,63.07 139.00,60.53 133.29,59.42 C131.52,59.07 129.61,58.24 129.05,57.56 C128.44,56.82 127.93,46.13 127.77,30.42 L 127.50 4.50 L 120.27 4.21 L 113.03 3.91 L 112.77 30.71 L 112.50 57.50 L 107.56 59.06 C101.68,60.92 99.06,64.04 98.29,70.09 C97.98,72.51 97.29,75.06 96.74,75.75 C96.03,76.65 91.67,77.00 81.28,77.00 L 66.80 77.00 L 63.46 80.34 C61.62,82.18 59.83,84.99 59.48,86.59 C58.36,91.63 58.13,91.99 54.52,94.12 L 51.00 96.20 L 51.00 108.40 C51.00,116.56 51.40,121.00 52.20,121.80 C53.11,122.71 69.56,123.00 120.13,123.00 C179.99,123.00 187.02,122.84 188.46,121.40 ZM 56.08 116.59 C55.35,115.72 55.02,112.39 55.20,107.84 L 55.50 100.50 L 184.50 100.50 L 184.79 107.64 C185.02,113.15 184.72,115.14 183.47,116.39 C182.02,117.84 175.54,118.00 119.55,118.00 C67.21,118.00 57.06,117.77 56.08,116.59 ZM 86.05 115.25 C101.70,115.41 121.93,115.64 131.00,115.76 C140.07,115.89 155.23,115.70 164.69,115.34 L 181.88 114.69 L 182.45 111.09 C182.77,109.12 182.67,106.21 182.23,104.63 L 181.42 101.75 L 119.96 101.58 C83.82,101.48 57.99,101.78 57.25,102.32 C55.88,103.33 55.56,111.76 56.81,113.73 C57.40,114.65 64.83,115.04 86.05,115.25 ZM 111.00 187.68 C111.00,189.93 111.26,190.00 120.00,190.00 L 129.00 190.00 L 128.98 186.75 C128.96,184.96 128.51,181.59 127.97,179.26 C127.44,176.93 126.56,172.21 126.03,168.76 C121.63,140.15 119.77,133.00 118.57,140.12 C117.60,145.86 115.94,156.10 114.49,165.22 C113.73,170.02 112.64,176.52 112.06,179.66 C111.48,182.80 111.00,186.41 111.00,187.68 ZM 225.00 12.51 L 225.00 200.51 C225.00,192.84 224.61,188.00 224.00,188.00 C223.34,188.00 223.00,160.35 223.00,107.06 C223.00,54.18 223.35,25.90 224.00,25.50 C224.58,25.14 225.00,19.68 225.00,12.51 ZM 103.71 76.38 C102.47,75.14 102.94,68.46 104.42,66.44 C105.68,64.72 107.34,64.46 119.39,64.17 C132.75,63.85 132.97,63.88 135.47,66.38 C139.93,70.84 138.21,77.59 132.81,76.83 C131.14,76.59 130.37,75.68 130.00,73.50 L 129.49 70.50 L 120.73 70.21 C113.04,69.96 111.90,70.14 111.41,71.71 C110.28,75.34 109.24,76.51 106.86,76.80 C105.52,76.96 104.10,76.77 103.71,76.38 ZM 105.68 74.35 C106.52,75.19 107.86,73.92 109.39,70.83 C110.44,68.72 111.32,68.47 118.52,68.20 C128.95,67.82 130.56,68.30 131.95,72.24 C133.02,75.25 133.21,75.36 134.45,73.70 C135.94,71.70 135.49,68.65 133.43,66.95 C132.58,66.24 127.54,65.86 119.79,65.92 C109.51,66.00 107.30,66.30 106.25,67.70 C104.90,69.52 104.58,73.25 105.68,74.35 ZM 99.01 187.25 C99.00,190.35 100.49,190.88 101.81,188.25 C102.82,186.23 107.28,161.09 108.42,151.00 C109.11,144.84 107.58,148.67 105.54,158.20 C104.68,162.21 102.86,169.77 101.50,175.00 C100.13,180.23 99.01,185.74 99.01,187.25 ZM 44.28 186.88 C43.87,188.62 44.09,189.14 45.11,188.81 C46.45,188.38 59.78,150.48 59.93,146.69 C60.04,143.83 58.23,145.69 57.45,149.23 C57.06,150.99 56.35,153.12 55.87,153.97 C54.84,155.77 45.11,183.40 44.28,186.88 ZM 3.71 213.00 L 24.78 212.61 C38.37,212.36 50.62,212.16 52.00,212.17 C53.38,212.19 92.86,212.38 139.75,212.61 L 220.38 213.00 ZM 0.42 153.78 L 0.05 213.00 L 0.00 213.00 L 0.00 40.38 C0.00,68.26 0.34,80.94 1.10,81.70 C1.82,82.42 1.95,84.82 1.49,88.65 C1.10,91.87 0.62,121.18 0.42,153.78 ZM 182.88 187.78 C184.24,190.31 186.53,189.75 185.45,187.15 C185.07,186.24 182.77,179.69 180.34,172.58 C176.04,160.05 174.09,155.40 174.03,157.54 C173.98,159.33 181.61,185.40 182.88,187.78 ZM 65.48 188.82 C65.79,189.63 66.31,190.03 66.63,189.71 C67.40,188.94 74.99,159.92 74.93,158.00 C74.90,157.18 74.18,158.75 73.33,161.50 C72.48,164.25 71.41,167.40 70.94,168.50 C68.63,173.97 64.99,187.53 65.48,188.82 ZM 191.07 178.75 C192.86,184.39 194.70,189.00 195.16,189.00 C195.62,189.00 196.00,188.44 196.00,187.75 C196.00,186.55 192.90,177.65 191.04,173.50 C190.55,172.40 189.36,169.02 188.41,166.00 C187.45,162.98 186.47,161.09 186.23,161.80 C186.00,162.52 186.25,164.32 186.81,165.80 C187.36,167.29 189.28,173.11 191.07,178.75 ZM 158.57 181.25 C159.47,185.51 160.61,189.00 161.10,189.00 L 161.12 189.00 C161.33,189.00 161.50,189.00 161.63,188.92 C162.39,188.47 161.56,185.36 155.85,164.08 L 155.75 163.71 C154.07,157.45 153.80,160.27 155.42,167.13 C156.25,170.63 157.67,176.99 158.57,181.25 ZM 149.05 185.25 C149.63,187.31 150.55,189.00 151.11,189.00 C151.68,189.00 151.90,188.21 151.62,187.25 C151.34,186.29 150.81,183.81 150.44,181.74 C150.07,179.67 149.37,177.73 148.89,177.43 C147.69,176.69 147.78,180.65 149.05,185.25 ZM 146.61 172.87 C146.88,174.17 147.35,174.99 147.65,174.69 C148.39,173.95 147.03,166.14 146.06,165.54 C145.33,165.09 145.52,167.56 146.61,172.87 Z" fill="rgb(246,247,248)"/>
<path d="M 0.42 153.78 C0.62,121.18 1.10,91.87 1.49,88.65 C1.95,84.82 1.82,82.42 1.10,81.70 C0.34,80.94 -0.00,68.26 -0.00,40.38 L -0.00 0.16 L 54.75 0.67 C84.86,0.95 109.68,1.35 109.89,1.56 C110.10,1.77 110.46,13.81 110.68,28.32 C111.11,57.44 111.46,55.80 104.37,57.83 C99.09,59.34 97.86,60.90 96.47,67.84 L 95.35 73.50 L 81.42 74.00 C70.33,74.40 66.89,74.87 64.48,76.33 C60.90,78.50 57.52,83.37 56.56,87.74 C56.10,89.83 54.75,91.54 52.54,92.84 C48.64,95.14 48.19,97.69 49.00,112.97 C49.47,121.84 49.66,122.53 52.00,123.71 C53.94,124.69 69.44,124.97 120.64,124.99 C184.26,125.00 186.87,124.93 189.14,123.09 C191.29,121.35 191.53,120.28 191.85,111.01 C192.33,96.76 191.75,94.37 187.24,92.24 C184.42,90.90 183.42,89.72 182.89,87.12 C182.09,83.20 179.53,79.48 175.62,76.56 C173.22,74.78 170.96,74.43 158.69,74.00 L 144.52 73.50 L 143.86 68.87 C142.76,61.12 140.43,58.46 133.50,57.04 L 130.50 56.42 L 129.72 44.96 C129.00,34.38 129.31,2.33 130.14,1.55 C130.34,1.36 151.76,0.97 177.75,0.68 L 225.00 0.15 L 225.00 12.51 C225.00,19.68 224.58,25.14 224.00,25.50 C223.35,25.90 223.00,54.18 223.00,107.06 C223.00,160.35 223.34,188.00 224.00,188.00 C224.61,188.00 225.00,192.84 225.00,200.51 L 225.00 213.02 L 139.75 212.61 C92.86,212.38 53.38,212.19 52.00,212.17 C50.62,212.16 38.37,212.36 24.78,212.61 L 0.05 213.07 L 0.42 153.78 ZM 211.39 202.67 C213.92,201.01 214.14,200.40 213.75,196.17 C213.51,193.60 211.63,187.00 209.58,181.50 C207.52,176.00 204.07,166.32 201.91,160.00 C195.37,140.87 190.77,129.59 188.76,127.78 C187.44,126.59 185.61,126.17 182.75,126.42 C178.15,126.81 175.67,129.23 176.56,132.45 C176.92,133.74 176.34,133.32 175.01,131.31 C172.92,128.19 172.75,128.13 165.69,128.31 C159.17,128.48 158.47,128.70 158.19,130.64 C157.91,132.63 161.75,146.59 170.44,175.24 C172.40,181.70 174.00,187.66 174.00,188.49 C174.00,190.77 172.09,190.30 170.97,187.75 C169.81,185.10 160.54,150.81 158.05,139.98 C157.10,135.85 155.78,131.46 155.13,130.23 C153.83,127.82 150.16,127.24 148.24,129.16 C147.43,129.97 146.69,130.00 145.79,129.28 C144.25,128.04 130.22,127.83 129.48,129.04 C128.99,129.82 130.42,137.02 136.54,164.50 C137.88,170.55 139.63,178.43 140.42,182.00 C141.95,188.88 141.20,191.65 138.55,188.96 C137.12,187.51 135.21,177.91 130.41,148.00 C126.97,126.58 127.78,127.85 117.69,128.13 C113.13,128.26 108.87,128.04 108.23,127.64 C105.84,126.16 103.30,130.77 101.10,140.59 C99.87,146.04 97.97,154.10 96.86,158.50 C95.76,162.90 94.02,170.55 93.00,175.50 C90.68,186.77 89.46,190.00 87.52,190.00 C85.56,190.00 85.60,189.27 87.99,180.66 C89.08,176.72 91.34,167.20 93.02,159.50 C94.69,151.80 96.94,142.12 98.02,138.00 C99.09,133.88 99.79,129.98 99.55,129.35 C99.02,127.86 85.01,127.83 83.17,129.31 C82.23,130.06 81.65,130.06 81.17,129.30 C80.12,127.61 67.36,127.86 65.92,129.60 C64.89,130.84 64.52,130.76 63.30,129.02 C62.22,127.48 60.78,127.00 57.19,127.02 C54.61,127.02 51.90,127.41 51.17,127.88 C50.43,128.34 48.69,131.82 47.30,135.61 C45.91,139.40 43.52,145.88 42.00,150.00 C36.14,165.89 30.87,180.83 28.34,188.67 L 25.72 196.83 L 27.64 200.13 C28.70,201.94 30.68,203.75 32.03,204.14 C33.39,204.53 73.67,204.77 121.54,204.67 C204.09,204.51 208.73,204.41 211.39,202.67 ZM 86.05 115.25 C64.83,115.04 57.40,114.65 56.81,113.73 C55.56,111.76 55.88,103.33 57.25,102.32 C57.99,101.78 83.82,101.48 119.96,101.58 L 181.42 101.75 L 182.23 104.63 C182.67,106.21 182.77,109.12 182.45,111.09 L 181.88 114.69 L 164.69 115.34 C155.23,115.70 140.07,115.89 131.00,115.76 C121.93,115.64 101.70,115.41 86.05,115.25 ZM 69.00 92.01 C67.84,91.27 67.75,90.66 68.61,89.28 C69.64,87.62 73.01,87.48 119.16,87.24 C171.27,86.97 173.32,87.13 171.69,91.36 C171.12,92.85 166.53,93.00 120.78,92.98 C90.54,92.98 69.90,92.59 69.00,92.01 ZM 105.68 74.35 C104.58,73.25 104.90,69.52 106.25,67.70 C107.30,66.30 109.51,66.00 119.79,65.92 C127.54,65.86 132.58,66.24 133.43,66.95 C135.49,68.65 135.94,71.70 134.45,73.70 C133.21,75.36 133.02,75.25 131.95,72.24 C130.56,68.30 128.95,67.82 118.52,68.20 C111.32,68.47 110.44,68.72 109.39,70.83 C107.86,73.92 106.52,75.19 105.68,74.35 ZM 65.48 188.82 C64.99,187.53 68.63,173.97 70.94,168.50 C71.41,167.40 72.48,164.25 73.33,161.50 C74.18,158.75 74.90,157.18 74.93,158.00 C74.99,159.92 67.40,188.94 66.63,189.71 C66.31,190.03 65.79,189.63 65.48,188.82 ZM 99.01 187.25 C99.01,185.74 100.13,180.23 101.50,175.00 C102.86,169.77 104.68,162.21 105.54,158.20 C107.58,148.67 109.11,144.84 108.42,151.00 C107.28,161.09 102.82,186.23 101.81,188.25 C100.49,190.88 99.00,190.35 99.01,187.25 ZM 111.00 187.68 C111.00,186.41 111.48,182.80 112.06,179.66 C112.64,176.52 113.73,170.02 114.49,165.22 C115.94,156.10 117.60,145.86 118.57,140.12 C119.77,133.00 121.63,140.15 126.03,168.76 C126.56,172.21 127.44,176.93 127.97,179.26 C128.51,181.59 128.96,184.96 128.98,186.75 L 129.00 190.00 L 120.00 190.00 C111.26,190.00 111.00,189.93 111.00,187.68 ZM 182.88 187.78 C181.61,185.40 173.98,159.33 174.03,157.54 C174.09,155.40 176.04,160.05 180.34,172.58 C182.77,179.69 185.07,186.24 185.45,187.15 C186.53,189.75 184.24,190.31 182.88,187.78 ZM 44.28 186.88 C45.11,183.40 54.84,155.77 55.87,153.97 C56.35,153.12 57.06,150.99 57.45,149.23 C58.23,145.69 60.04,143.83 59.93,146.69 C59.78,150.48 46.45,188.38 45.11,188.81 C44.09,189.14 43.87,188.62 44.28,186.88 ZM 149.05 185.25 C147.78,180.65 147.69,176.69 148.89,177.43 C149.37,177.73 150.07,179.67 150.44,181.74 C150.81,183.81 151.34,186.29 151.62,187.25 C151.90,188.21 151.68,189.00 151.11,189.00 C150.55,189.00 149.63,187.31 149.05,185.25 ZM 158.57 181.25 C157.67,176.99 156.25,170.63 155.42,167.13 C153.80,160.27 154.07,157.45 155.75,163.71 C162.57,189.12 162.54,189.00 161.10,189.00 C160.61,189.00 159.47,185.51 158.57,181.25 ZM 191.07 178.75 C189.28,173.11 187.36,167.29 186.81,165.80 C186.25,164.32 186.00,162.52 186.23,161.80 C186.47,161.09 187.45,162.98 188.41,166.00 C189.36,169.02 190.55,172.40 191.04,173.50 C192.90,177.65 196.00,186.55 196.00,187.75 C196.00,188.44 195.62,189.00 195.16,189.00 C194.70,189.00 192.86,184.39 191.07,178.75 ZM 146.61 172.87 C145.52,167.56 145.33,165.09 146.06,165.54 C147.03,166.14 148.39,173.95 147.65,174.69 C147.35,174.99 146.88,174.17 146.61,172.87 Z" fill="rgb(252,252,252)"/>
</g>
</svg>